<?xml version="1.0" encoding="utf-8"?>
<!-- Generator: Adobe Illustrator 21.0.0, SVG Export Plug-In . SVG Version: 6.00 Build 0)  -->
<svg version="1.1" id="art_work" xmlns="http://www.w3.org/2000/svg" xmlns:xlink="http://www.w3.org/1999/xlink" x="0px" y="0px"
	 viewBox="0 0 27.7 36" style="enable-background:new 0 0 27.7 36;" xml:space="preserve">
<title>MR_DESIGN_NEY YORK</title>
<polygon points="11.4,36 13.2,36 13.2,22.7 11.3,22.7 11.3,31.3 10.9,31.4 5.7,22.7 3.8,22.7 3.8,36 5.6,36 5.6,27.4 6.2,27.3 "/>
<polygon points="19.4,36 21.2,36 21.3,29.1 24.9,22.7 22.8,22.7 20.3,27.2 17.9,22.7 15.8,22.7 19.4,29.2 "/>
<path d="M7.8,13.4L11,5.6h0.5v7.8h1.9V0h-1.9L6.7,11.3L2,0H0v13.4h1.9V5.7h0.5l3.2,7.8L7.8,13.4"/>
<path d="M25.6,4.7l-1.1,1.1h-4.5v-4h4.7l1,1.1V4.7 M18.1,0v13.4h1.8V7.6h3.2l1.7,5.8h2l-1.8-5.6l2.4-2.3V2.2L25.4,0H18.1z"/>
<rect x="0" y="16.2" width="27.7" height="3.7"/>
</svg>
