<?xml version="1.0" encoding="utf-8"?>
<!-- Generator: Adobe Illustrator 21.0.0, SVG Export Plug-In . SVG Version: 6.00 Build 0)  -->
<svg version="1.1" id="art_work" xmlns="http://www.w3.org/2000/svg" xmlns:xlink="http://www.w3.org/1999/xlink" x="0px" y="0px"
	 viewBox="0 0 27.5 36" style="enable-background:new 0 0 27.5 36;" xml:space="preserve">
<path d="M8.4,29.6l0.7,2l-1.8-1.2l-1.7,1.3l0.8-2.2l-1.8-1.2h2.2l0.7-2l0.7,2h2L8.4,29.6z"/>
<path d="M14.6,29.6l0.7,2l-1.7-1.2l-1.7,1.3l0.7-2l-1.8-1.2h2.2l0.7-2l0.7,2h2.2L14.6,29.6z"/>
<path d="M20.8,29.6l0.7,2l-1.8-1.2L18,31.7l0.7-2l-1.8-1.3H19l0.7-2l0.7,2h2.2L20.8,29.6z"/>
<path d="M6.7,11.3L1.9,0H0v13.4h1.8V5.7h0.5l3.1,7.8h2.2l3.2-7.8h0.5v7.7h1.8V0h-1.9L6.7,11.3z"/>
<path d="M27.5,2.2L25.4,0h-7.3v13.4h1.8V7.6H23l1.7,5.8h1.9L25,7.8l2.5-2.4V2.2z M25.7,4.6l-1,1.1h-4.7v-4h4.7l1,1V4.6z"/>
<rect x="0" y="16.2" width="27.5" height="3.7"/>
</svg>
